<svg width="174" height="28" viewBox="0 0 174 28" fill="none" xmlns="http://www.w3.org/2000/svg">
<path d="M8.964 27C8.7 27 8.484 26.916 8.316 26.748C8.148 26.58 8.064 26.364 8.064 26.1V7.452H1.656C1.392 7.452 1.176 7.368 1.008 7.2C0.84 7.008 0.756 6.792 0.756 6.552V2.7C0.756 2.436 0.84 2.22 1.008 2.052C1.176 1.884 1.392 1.8 1.656 1.8H21.024C21.288 1.8 21.504 1.884 21.672 2.052C21.84 2.22 21.924 2.436 21.924 2.7V6.552C21.924 6.792 21.84 7.008 21.672 7.2C21.504 7.368 21.288 7.452 21.024 7.452H14.616V26.1C14.616 26.364 14.532 26.58 14.364 26.748C14.196 26.916 13.98 27 13.716 27H8.964ZM21.2912 27C21.0272 27 20.8112 26.916 20.6432 26.748C20.4752 26.58 20.3912 26.364 20.3912 26.1V2.34C20.3912 2.076 20.4752 1.86 20.6432 1.692C20.8112 1.524 21.0272 1.44 21.2912 1.44H25.8992C26.1632 1.44 26.3792 1.524 26.5472 1.692C26.7152 1.86 26.7992 2.076 26.7992 2.34V10.368C27.4472 9.624 28.2392 9.036 29.1752 8.604C30.1352 8.148 31.2392 7.92 32.4872 7.92C33.8792 7.92 35.1152 8.232 36.1952 8.856C37.2992 9.48 38.1632 10.404 38.7872 11.628C39.4112 12.828 39.7232 14.304 39.7232 16.056V26.1C39.7232 26.364 39.6392 26.58 39.4712 26.748C39.3032 26.916 39.0872 27 38.8232 27H34.1792C33.9392 27 33.7232 26.916 33.5312 26.748C33.3632 26.58 33.2792 26.364 33.2792 26.1V16.272C33.2792 15.144 33.0032 14.28 32.4512 13.68C31.9232 13.056 31.1312 12.744 30.0752 12.744C29.0912 12.744 28.2992 13.056 27.6992 13.68C27.0992 14.28 26.7992 15.144 26.7992 16.272V26.1C26.7992 26.364 26.7152 26.58 26.5472 26.748C26.3792 26.916 26.1632 27 25.8992 27H21.2912ZM48.8453 27.36C46.0132 27.36 43.7572 26.592 42.0772 25.056C40.3972 23.52 39.5212 21.24 39.4492 18.216C39.4492 18.048 39.4492 17.832 39.4492 17.568C39.4492 17.304 39.4492 17.1 39.4492 16.956C39.5212 15.06 39.9412 13.44 40.7092 12.096C41.5012 10.728 42.5812 9.696 43.9492 9C45.3412 8.28 46.9612 7.92 48.8092 7.92C50.9212 7.92 52.6612 8.34 54.0292 9.18C55.4213 10.02 56.4653 11.16 57.1613 12.6C57.8572 14.04 58.2052 15.684 58.2052 17.532V18.396C58.2052 18.66 58.1092 18.876 57.9172 19.044C57.7492 19.212 57.5453 19.296 57.3053 19.296H45.7852C45.7852 19.32 45.7852 19.356 45.7852 19.404C45.7852 19.452 45.7852 19.5 45.7852 19.548C45.8092 20.244 45.9292 20.88 46.1452 21.456C46.3612 22.032 46.6972 22.488 47.1532 22.824C47.6092 23.16 48.1612 23.328 48.8092 23.328C49.2892 23.328 49.6853 23.256 49.9973 23.112C50.3333 22.944 50.6092 22.764 50.8252 22.572C51.0412 22.356 51.2092 22.176 51.3293 22.032C51.5452 21.792 51.7132 21.648 51.8333 21.6C51.9772 21.528 52.1932 21.492 52.4812 21.492H56.9453C57.1853 21.492 57.3773 21.564 57.5213 21.708C57.6893 21.828 57.7613 22.008 57.7372 22.248C57.7132 22.656 57.5093 23.148 57.1253 23.724C56.7413 24.3 56.1772 24.876 55.4333 25.452C54.7133 26.004 53.8012 26.46 52.6972 26.82C51.5932 27.18 50.3092 27.36 48.8453 27.36ZM45.7852 15.732H51.8692V15.66C51.8692 14.892 51.7492 14.22 51.5093 13.644C51.2933 13.068 50.9452 12.624 50.4652 12.312C50.0092 12 49.4572 11.844 48.8092 11.844C48.1612 11.844 47.6092 12 47.1532 12.312C46.7212 12.624 46.3852 13.068 46.1452 13.644C45.9052 14.22 45.7852 14.892 45.7852 15.66V15.732ZM58.8803 27C58.6163 27 58.4003 26.916 58.2323 26.748C58.0643 26.58 57.9803 26.364 57.9803 26.1V9.18C57.9803 8.916 58.0643 8.7 58.2323 8.532C58.4003 8.364 58.6163 8.28 58.8803 8.28H62.8043C63.0683 8.28 63.2843 8.364 63.4523 8.532C63.6203 8.7 63.7043 8.916 63.7043 9.18V10.404C64.1843 9.756 64.8563 9.192 65.7203 8.712C66.5843 8.208 67.6043 7.944 68.7803 7.92C71.5403 7.872 73.4363 8.916 74.4683 11.052C75.0203 10.14 75.8123 9.396 76.8443 8.82C77.8763 8.22 79.0043 7.92 80.2283 7.92C81.4763 7.92 82.5923 8.208 83.5763 8.784C84.5843 9.336 85.3883 10.2 85.9883 11.376C86.5883 12.528 86.8883 14.028 86.8883 15.876V26.1C86.8883 26.364 86.7923 26.58 86.6003 26.748C86.4323 26.916 86.2283 27 85.9883 27H81.8123C81.5483 27 81.3203 26.916 81.1283 26.748C80.9603 26.58 80.8763 26.364 80.8763 26.1V16.128C80.8763 15.288 80.7563 14.628 80.5163 14.148C80.2763 13.644 79.9523 13.284 79.5443 13.068C79.1363 12.852 78.6683 12.744 78.1403 12.744C77.7083 12.744 77.2763 12.852 76.8443 13.068C76.4363 13.284 76.1003 13.644 75.8363 14.148C75.5963 14.628 75.4763 15.288 75.4763 16.128V26.1C75.4763 26.364 75.3923 26.58 75.2243 26.748C75.0563 26.916 74.8403 27 74.5763 27H70.4003C70.1363 27 69.9203 26.916 69.7523 26.748C69.5843 26.58 69.5003 26.364 69.5003 26.1V16.128C69.5003 15.288 69.3683 14.628 69.1043 14.148C68.8403 13.644 68.5043 13.284 68.0963 13.068C67.6883 12.852 67.2323 12.744 66.7283 12.744C66.2963 12.744 65.8643 12.852 65.4323 13.068C65.0243 13.284 64.6883 13.644 64.4243 14.148C64.1843 14.628 64.0643 15.276 64.0643 16.092V26.1C64.0643 26.364 63.9683 26.58 63.7763 26.748C63.6083 26.916 63.3923 27 63.1283 27H58.8803ZM95.9617 27.36C93.1297 27.36 90.8737 26.592 89.1937 25.056C87.5137 23.52 86.6377 21.24 86.5657 18.216C86.5657 18.048 86.5657 17.832 86.5657 17.568C86.5657 17.304 86.5657 17.1 86.5657 16.956C86.6377 15.06 87.0577 13.44 87.8257 12.096C88.6177 10.728 89.6977 9.696 91.0657 9C92.4577 8.28 94.0777 7.92 95.9257 7.92C98.0377 7.92 99.7777 8.34 101.146 9.18C102.538 10.02 103.582 11.16 104.278 12.6C104.974 14.04 105.322 15.684 105.322 17.532V18.396C105.322 18.66 105.226 18.876 105.034 19.044C104.866 19.212 104.662 19.296 104.422 19.296H92.9017C92.9017 19.32 92.9017 19.356 92.9017 19.404C92.9017 19.452 92.9017 19.5 92.9017 19.548C92.9257 20.244 93.0457 20.88 93.2617 21.456C93.4777 22.032 93.8137 22.488 94.2697 22.824C94.7257 23.16 95.2777 23.328 95.9257 23.328C96.4057 23.328 96.8017 23.256 97.1137 23.112C97.4497 22.944 97.7257 22.764 97.9417 22.572C98.1577 22.356 98.3257 22.176 98.4457 22.032C98.6617 21.792 98.8297 21.648 98.9497 21.6C99.0937 21.528 99.3097 21.492 99.5977 21.492H104.062C104.302 21.492 104.494 21.564 104.638 21.708C104.806 21.828 104.878 22.008 104.854 22.248C104.83 22.656 104.626 23.148 104.242 23.724C103.858 24.3 103.294 24.876 102.55 25.452C101.83 26.004 100.918 26.46 99.8137 26.82C98.7097 27.18 97.4257 27.36 95.9617 27.36ZM92.9017 15.732H98.9857V15.66C98.9857 14.892 98.8657 14.22 98.6257 13.644C98.4097 13.068 98.0617 12.624 97.5817 12.312C97.1257 12 96.5737 11.844 95.9257 11.844C95.2777 11.844 94.7257 12 94.2697 12.312C93.8377 12.624 93.5017 13.068 93.2617 13.644C93.0217 14.22 92.9017 14.892 92.9017 15.66V15.732Z" fill="#4A1EC5"/>
<path d="M110.317 27C109.957 27 109.693 26.916 109.525 26.748C109.357 26.58 109.225 26.364 109.129 26.1L103.945 9.432C103.897 9.312 103.873 9.192 103.873 9.072C103.873 8.856 103.957 8.676 104.125 8.532C104.293 8.364 104.485 8.28 104.701 8.28H108.409C108.721 8.28 108.961 8.364 109.129 8.532C109.321 8.7 109.441 8.868 109.489 9.036L112.513 19.332L115.753 9.072C115.801 8.904 115.909 8.736 116.077 8.568C116.269 8.376 116.533 8.28 116.869 8.28H119.245C119.581 8.28 119.833 8.376 120.001 8.568C120.193 8.736 120.313 8.904 120.361 9.072L123.601 19.332L126.625 9.036C126.673 8.868 126.781 8.7 126.949 8.532C127.141 8.364 127.393 8.28 127.705 8.28H131.413C131.629 8.28 131.809 8.364 131.953 8.532C132.121 8.676 132.205 8.856 132.205 9.072C132.205 9.192 132.193 9.312 132.169 9.432L126.985 26.1C126.913 26.364 126.781 26.58 126.589 26.748C126.421 26.916 126.157 27 125.797 27H122.557C122.221 27 121.957 26.916 121.765 26.748C121.573 26.58 121.441 26.364 121.369 26.1L118.057 16.236L114.745 26.1C114.673 26.364 114.541 26.58 114.349 26.748C114.157 26.916 113.893 27 113.557 27H110.317ZM136.785 27.36C135.489 27.36 134.325 27.12 133.293 26.64C132.285 26.136 131.481 25.464 130.881 24.624C130.281 23.784 129.981 22.836 129.981 21.78C129.981 20.076 130.677 18.732 132.069 17.748C133.461 16.74 135.309 16.056 137.613 15.696L142.113 15.012V14.508C142.113 13.644 141.933 12.984 141.573 12.528C141.213 12.072 140.553 11.844 139.593 11.844C138.921 11.844 138.369 11.976 137.937 12.24C137.529 12.504 137.205 12.864 136.965 13.32C136.749 13.632 136.449 13.788 136.065 13.788H132.033C131.769 13.788 131.565 13.716 131.421 13.572C131.277 13.404 131.217 13.212 131.241 12.996C131.241 12.564 131.397 12.072 131.709 11.52C132.045 10.944 132.549 10.38 133.221 9.828C133.893 9.276 134.757 8.82 135.813 8.46C136.869 8.1 138.141 7.92 139.629 7.92C141.189 7.92 142.521 8.1 143.625 8.46C144.729 8.82 145.617 9.324 146.289 9.972C146.985 10.62 147.501 11.388 147.837 12.276C148.173 13.14 148.341 14.1 148.341 15.156V26.1C148.341 26.364 148.245 26.58 148.053 26.748C147.885 26.916 147.681 27 147.441 27H143.265C143.001 27 142.785 26.916 142.617 26.748C142.449 26.58 142.365 26.364 142.365 26.1V24.84C142.053 25.296 141.633 25.716 141.105 26.1C140.577 26.484 139.953 26.784 139.233 27C138.537 27.24 137.721 27.36 136.785 27.36ZM138.477 23.256C139.173 23.256 139.797 23.112 140.349 22.824C140.925 22.512 141.369 22.044 141.681 21.42C142.017 20.772 142.185 19.968 142.185 19.008V18.504L139.125 19.044C137.997 19.236 137.169 19.536 136.641 19.944C136.137 20.328 135.885 20.784 135.885 21.312C135.885 21.72 136.005 22.068 136.245 22.356C136.485 22.644 136.797 22.872 137.181 23.04C137.565 23.184 137.997 23.256 138.477 23.256ZM155.787 27.36C154.635 27.36 153.591 27.18 152.655 26.82C151.743 26.436 150.951 25.884 150.279 25.164C149.631 24.42 149.127 23.532 148.767 22.5C148.407 21.444 148.203 20.244 148.155 18.9C148.131 18.42 148.119 18 148.119 17.64C148.119 17.256 148.131 16.836 148.155 16.38C148.203 15.084 148.407 13.92 148.767 12.888C149.127 11.856 149.631 10.968 150.279 10.224C150.927 9.48 151.719 8.916 152.655 8.532C153.591 8.124 154.635 7.92 155.787 7.92C156.987 7.92 158.019 8.124 158.883 8.532C159.747 8.916 160.479 9.42 161.079 10.044V2.34C161.079 2.076 161.163 1.86 161.331 1.692C161.499 1.524 161.715 1.44 161.979 1.44H166.371C166.611 1.44 166.815 1.524 166.983 1.692C167.175 1.86 167.271 2.076 167.271 2.34V26.1C167.271 26.364 167.175 26.58 166.983 26.748C166.815 26.916 166.611 27 166.371 27H162.303C162.039 27 161.823 26.916 161.655 26.748C161.487 26.58 161.403 26.364 161.403 26.1V24.948C160.827 25.644 160.083 26.22 159.171 26.676C158.259 27.132 157.131 27.36 155.787 27.36ZM157.731 22.536C158.547 22.536 159.183 22.368 159.639 22.032C160.119 21.672 160.467 21.216 160.683 20.664C160.923 20.112 161.055 19.512 161.079 18.864C161.103 18.384 161.115 17.928 161.115 17.496C161.115 17.064 161.103 16.62 161.079 16.164C161.055 15.564 160.923 15.012 160.683 14.508C160.443 13.98 160.083 13.56 159.603 13.248C159.123 12.912 158.499 12.744 157.731 12.744C156.939 12.744 156.303 12.912 155.823 13.248C155.367 13.584 155.043 14.04 154.851 14.616C154.659 15.192 154.539 15.828 154.491 16.524C154.419 17.268 154.419 18.012 154.491 18.756C154.539 19.452 154.659 20.088 154.851 20.664C155.043 21.24 155.367 21.696 155.823 22.032C156.303 22.368 156.939 22.536 157.731 22.536ZM168.814 27C168.55 27 168.334 26.916 168.166 26.748C167.998 26.58 167.914 26.364 167.914 26.1V9.18C167.914 8.916 167.998 8.7 168.166 8.532C168.334 8.364 168.55 8.28 168.814 8.28H173.062C173.302 8.28 173.506 8.364 173.674 8.532C173.866 8.7 173.962 8.916 173.962 9.18V26.1C173.962 26.364 173.866 26.58 173.674 26.748C173.506 26.916 173.302 27 173.062 27H168.814ZM168.778 5.58C168.514 5.58 168.298 5.496 168.13 5.328C167.962 5.16 167.878 4.944 167.878 4.68V1.476C167.878 1.212 167.962 0.995999 168.13 0.827998C168.298 0.635999 168.514 0.539999 168.778 0.539999H173.062C173.326 0.539999 173.542 0.635999 173.71 0.827998C173.902 0.995999 173.998 1.212 173.998 1.476V4.68C173.998 4.944 173.902 5.16 173.71 5.328C173.542 5.496 173.326 5.58 173.062 5.58H168.778Z" fill="#4A1EC5" fill-opacity="0.4"/>
</svg>
